<svg id="Capa_1" enable-background="new 0 0 512 512" height="512" viewBox="0 0 512 512" width="512" xmlns="http://www.w3.org/2000/svg" xmlns:xlink="http://www.w3.org/1999/xlink"><linearGradient id="SVGID_1_" gradientUnits="userSpaceOnUse" x1="256" x2="256" y1="496.634" y2="15.366"><stop offset="0" stop-color="#5558ff"/><stop offset="1" stop-color="#00c0ff"/></linearGradient><linearGradient id="SVGID_2_" gradientUnits="userSpaceOnUse" x1="255.71" x2="255.71" y1="292.089" y2="107.621"><stop offset="0" stop-color="#addcff"/><stop offset=".5028" stop-color="#eaf6ff"/><stop offset="1" stop-color="#eaf6ff"/></linearGradient><g><g><g><path d="m370.581 15.366c-53.61 0-87.381 41.608-87.381 92.476 0 11.374 1.57 22.553 3.389 35.496 4.221 30.038 10 71.176-1.107 146.397l-13.148 89.034c-8.273 56.008 25.067 117.865 85.152 117.865 45.261 0 85.206-39.365 92.916-91.568 13.498-91.405 31.529-138.401 44.694-172.716 9.813-25.58 16.904-44.061 16.904-67.488 0-64.214-58.154-149.496-141.419-149.496zm-144.062 274.369c-11.107-75.222-5.328-116.36-1.107-146.397 1.818-12.944 3.389-24.122 3.389-35.496 0-51.048-33.944-92.476-87.381-92.476-84.963 0-141.42 87.113-141.42 149.496 0 23.454 6.964 42.007 16.603 67.684 12.884 34.323 30.529 81.33 43.996 172.52 7.71 52.202 48.085 91.568 93.916 91.568 62.159 0 93.045-64.435 85.152-117.865z" fill="url(#SVGID_1_)"/></g></g><g><g><path d="m481.262 265.838c-3.832-29.921-16.893-60.59-37.832-86.358-14.328-17.633-30.381-30.851-45.147-37.54l2.529-17.125c1.211-8.195-4.452-15.82-12.647-17.031-8.195-1.21-15.82 4.452-17.03 12.648l-2.588 17.523c-16.879 3.544-33.29 17.011-47.374 39.236-16.035 25.303-28.072 60.002-33.639 97.706-1.21 8.195 4.452 15.82 12.647 17.03 8.214 1.212 15.823-4.469 17.03-12.648 4.968-33.642 15.464-64.195 29.302-86.03 11.067-17.465 23.661-27.467 32.886-26.108 8.4 1.24 24.735 11.551 40.749 31.258 17.464 21.491 28.226 46.795 31.356 71.249 1.053 8.217 8.568 14.028 16.784 12.973 8.217-1.052 14.025-8.566 12.974-16.783zm-290.434-88.648c-14.085-22.225-30.496-35.689-47.374-39.234l-2.588-17.524c-1.211-8.195-8.824-13.859-17.03-12.648-8.195 1.21-13.858 8.835-12.647 17.031l2.529 17.125c-14.767 6.689-30.819 19.907-45.147 37.54-20.939 25.768-34.58 56.437-38.412 86.358-1.052 8.217 4.757 15.731 12.974 16.783 8.235 1.057 15.731-4.757 16.784-12.973 3.131-24.454 14.473-49.758 31.937-71.249 16.014-19.707 32.349-30.018 40.749-31.258 9.223-1.363 21.818 8.644 32.886 26.108 13.838 21.835 24.344 52.388 29.312 86.03 1.21 8.196 8.834 13.859 17.03 12.648 8.195-1.21 13.857-8.835 12.647-17.03-5.568-37.704-17.615-72.404-33.65-97.707z" fill="url(#SVGID_2_)"/></g></g></g></svg>