<svg id="Capa_1" enable-background="new 0 0 512 512" height="512" viewBox="0 0 512 512" width="512" xmlns="http://www.w3.org/2000/svg"><g id="XMLID_111_"><path id="XMLID_116_" d="m146.309 241.264c8.242-53.164 54.211-93.858 109.684-93.858s101.442 40.693 109.684 93.856l-109.678 17.144z" fill="#ffe666"/><path id="XMLID_3054_" d="m255.993 147.407c-.22 0-.438.006-.658.008v110.889l.664.104 109.678-17.144c-8.242-53.164-54.211-93.857-109.684-93.857z" fill="#fb3"/><path id="XMLID_3050_" d="m426.663 273.407c-24.675 0-37.617-6.066-49.035-11.418-9.824-4.605-18.309-8.582-36.302-8.582-17.992 0-26.476 3.977-36.3 8.582-11.418 5.352-24.359 11.418-49.033 11.418s-37.615-6.066-49.032-11.418c-9.823-4.605-18.307-8.582-36.298-8.582-17.992 0-26.476 3.977-36.299 8.582-11.417 5.352-24.358 11.418-49.033 11.418-24.674 0-37.614-6.066-49.032-11.418-9.823-4.605-18.307-8.582-36.299-8.582v-30c24.674 0 37.615 6.066 49.032 11.418 9.823 4.605 18.307 8.582 36.298 8.582 17.992 0 26.476-3.977 36.299-8.582 11.417-5.352 24.358-11.418 49.033-11.418 24.674 0 37.614 6.066 49.032 11.418 9.823 4.605 18.307 8.582 36.299 8.582s26.476-3.977 36.3-8.582c11.418-5.352 24.359-11.418 49.033-11.418 24.675 0 37.617 6.066 49.035 11.418 9.824 4.605 18.309 8.582 36.302 8.582s26.478-3.977 36.302-8.582c11.418-5.352 24.359-11.418 49.035-11.418v30c-17.993 0-26.478 3.977-36.302 8.582-11.418 5.352-24.36 11.418-49.035 11.418z" fill="#2ee6e6"/><path id="XMLID_3036_" d="m426.663 361.667c-24.675 0-37.617-6.066-49.035-11.418-9.824-4.605-18.309-8.582-36.302-8.582-17.992 0-26.476 3.977-36.3 8.582-11.418 5.352-24.359 11.418-49.033 11.418s-37.615-6.066-49.032-11.418c-9.823-4.605-18.307-8.582-36.298-8.582-17.992 0-26.476 3.977-36.299 8.582-11.417 5.352-24.358 11.418-49.033 11.418-24.674 0-37.614-6.066-49.032-11.418-9.823-4.605-18.307-8.582-36.299-8.582v-30c24.674 0 37.615 6.066 49.032 11.418 9.823 4.605 18.307 8.582 36.298 8.582 17.992 0 26.476-3.977 36.299-8.582 11.417-5.352 24.358-11.418 49.033-11.418 24.674 0 37.614 6.066 49.032 11.418 9.823 4.605 18.307 8.582 36.299 8.582s26.476-3.977 36.3-8.582c11.418-5.352 24.359-11.418 49.033-11.418 24.675 0 37.617 6.066 49.035 11.418 9.824 4.605 18.309 8.582 36.302 8.582s26.478-3.977 36.302-8.582c11.418-5.352 24.359-11.418 49.035-11.418v30c-17.993 0-26.478 3.977-36.302 8.582-11.418 5.352-24.36 11.418-49.035 11.418z" fill="#2ee6e6"/><path id="XMLID_3032_" d="m426.663 449.927c-24.675 0-37.617-6.066-49.035-11.418-9.824-4.605-18.309-8.582-36.302-8.582-17.992 0-26.476 3.977-36.3 8.582-11.418 5.352-24.359 11.418-49.033 11.418s-37.615-6.066-49.032-11.418c-9.823-4.604-18.307-8.582-36.298-8.582-17.992 0-26.476 3.977-36.299 8.582-11.417 5.352-24.358 11.418-49.033 11.418v-30c17.992 0 26.476-3.977 36.299-8.582 11.417-5.352 24.358-11.418 49.033-11.418 24.674 0 37.614 6.066 49.032 11.418 9.823 4.605 18.307 8.582 36.299 8.582s26.476-3.977 36.3-8.582c11.418-5.352 24.359-11.418 49.033-11.418 24.675 0 37.617 6.066 49.035 11.418 9.825 4.605 18.309 8.582 36.302 8.582v30z" fill="#2ee6e6"/><g fill="#fb3"><path id="XMLID_3031_" d="m240.335 62.073h30v41.667h-30z"/><path id="XMLID_3030_" d="m137.304 95.978h30v41.666h-30z" transform="matrix(.809 -.588 .588 .809 -39.572 111.83)"/><path id="XMLID_3027_" d="m73.879 183.967h30v41.667h-30z" transform="matrix(.309 -.951 .951 .309 -133.362 226.041)"/></g><path id="XMLID_2234_" d="m401.867 188.549h41.666v30h-41.666z" fill="#fd956a" transform="matrix(.951 -.309 .309 .951 -42.212 140.586)"/><path id="XMLID_2231_" d="m337.784 101.038h41.667v30h-41.667z" fill="#fd956a" transform="matrix(.588 -.809 .809 .588 53.95 337.958)"/><path id="XMLID_3056_" d="m255.335 62.073h15v41.667h-15z" fill="#fd956a"/><path id="XMLID_3053_" d="m462.965 234.825c-9.824 4.605-18.309 8.582-36.302 8.582s-26.478-3.977-36.302-8.582c-11.418-5.352-24.359-11.418-49.035-11.418-24.674 0-37.615 6.066-49.033 11.418-9.824 4.605-18.308 8.582-36.3 8.582-.227 0-.435-.008-.658-.009v30.004c.221.001.436.005.658.005 24.674 0 37.615-6.066 49.033-11.418 9.824-4.605 18.308-8.582 36.3-8.582 17.993 0 26.478 3.977 36.302 8.582 11.418 5.352 24.359 11.418 49.035 11.418s37.617-6.066 49.035-11.418c9.824-4.605 18.309-8.582 36.302-8.582v-30c-24.675 0-37.617 6.066-49.035 11.418z" fill="#2ec7e6"/><path id="XMLID_3055_" d="m390.361 411.345c-11.418-5.352-24.359-11.418-49.035-11.418-24.674 0-37.615 6.066-49.033 11.418-9.824 4.605-18.308 8.582-36.3 8.582-.227 0-.435-.008-.658-.009v30.004c.221.001.436.005.658.005 24.674 0 37.615-6.066 49.033-11.418 9.824-4.605 18.308-8.582 36.3-8.582 17.993 0 26.478 3.977 36.302 8.582 11.418 5.352 24.359 11.418 49.035 11.418v-30c-17.993 0-26.477-3.977-36.302-8.582z" fill="#2ec7e6"/><path id="XMLID_3067_" d="m462.965 323.085c-9.824 4.605-18.309 8.582-36.302 8.582s-26.478-3.977-36.302-8.582c-11.418-5.352-24.359-11.418-49.035-11.418-24.674 0-37.615 6.066-49.033 11.418-9.824 4.605-18.308 8.582-36.3 8.582-.227 0-.435-.008-.658-.009v30.004c.221.001.436.005.658.005 24.674 0 37.615-6.066 49.033-11.418 9.824-4.605 18.308-8.582 36.3-8.582 17.993 0 26.478 3.977 36.302 8.582 11.418 5.352 24.359 11.418 49.035 11.418s37.617-6.066 49.035-11.418c9.824-4.605 18.309-8.582 36.302-8.582v-30c-24.675 0-37.617 6.066-49.035 11.418z" fill="#2ec7e6"/></g></svg>